<svg width="112" height="112" viewBox="0 0 112 112" fill="none" xmlns="http://www.w3.org/2000/svg">
<path d="M56 10.9268L49.7343 21.3785C44.8083 29.5955 42.3452 33.7041 42.3452 38.2439C42.3452 42.7837 44.8083 46.8923 49.7343 55.1093L53.6596 61.6569C54.7047 63.4004 55.2273 64.2721 56 64.2721C56.7727 64.2721 57.2953 63.4004 58.3404 61.6569L62.2657 55.1093C67.1917 46.8923 69.6548 42.7837 69.6548 38.2439C69.6548 33.7041 67.1917 29.5955 62.2657 21.3785L56 10.9268ZM56 10.9268V0M100.545 57.9017L88.3685 57.6967C78.7953 57.5355 74.0087 57.4549 70.0805 59.7248C66.1522 61.9947 63.8286 66.1839 59.1815 74.5621L55.4785 81.2381C54.4925 83.0158 53.9995 83.9046 54.3859 84.5743C54.7722 85.244 55.7878 85.2611 57.8189 85.2953L65.4472 85.4238C75.0204 85.585 79.8069 85.6655 83.7352 83.3956C87.6635 81.1257 89.9871 76.9366 94.6342 68.5583L100.545 57.9017ZM100.545 57.9017L110 52.4383M11.4549 57.9017L23.6315 57.6967C33.2047 57.5355 37.9913 57.4549 41.9195 59.7248C45.8478 61.9947 48.1714 66.1839 52.8185 74.5621L56.5215 81.2381C57.5075 83.0158 58.0005 83.9046 57.6141 84.5743C57.2278 85.244 56.2122 85.2611 54.1811 85.2953L46.5528 85.4238C36.9796 85.585 32.1931 85.6655 28.2648 83.3956C24.3365 81.1257 22.0129 76.9366 17.3658 68.5583L11.4549 57.9017ZM11.4549 57.9017L2 52.4383M56 71.0244V112" stroke="#064E3B" stroke-width="6"/>
</svg>
